<svg xmlns="http://www.w3.org/2000/svg" viewBox="0 0 1835.55 430.21"><defs><style>.cls-1{font-size:232.43px;font-family:AzonixRegular, Azonix;}.cls-2{letter-spacing:-0.08em;}</style></defs><g id="Layer_2" data-name="Layer 2"><path d="M222.64,251.85c0-9.39-.28-18.13.22-26.83.11-1.9,2.62-4.3,4.61-5.34,5.12-2.67,10.61-4.59,15.87-7q22.11-10.14,44.16-20.44c6.79-3.18,9.82-1.34,9.83,6.19,0,17.8.22,35.6,0,53.39-.31,24.49-9.61,44.91-28.26,61-22.27,19.2-47.88,32.78-74.56,44.56a189.4,189.4,0,0,1-20.82,8.27c-3.55,1.08-8.14,1.28-11.51,0-33.25-13-65.22-28.4-92.93-51.39-20-16.61-29.81-38.07-29.77-64.1q.08-68,0-136c0-7.76,2.09-10.71,9.5-12.92,37.85-11.26,75.68-22.56,113.61-33.53a23.58,23.58,0,0,1,12.42,0c31,9,62,18.32,92.92,27.54,7,2.1,14.09,4.09,21.11,6.23,5.55,1.69,8,4.65,8.19,10.44.22,8,.12,16.1,0,24.15,0,4.42-3.28,6.34-6.75,7.81-12.59,5.33-25.22,10.57-37.85,15.84-18.34,7.65-36.59,15.55-55.09,22.82-7.7,3-10.43,8.11-10.35,15.9.21,18.78.16,37.57.17,56.36q0,32.83-.05,65.68c0,6.93,1.87,8.3,8,5.37,18.45-8.86,36.84-17.84,53.25-30.3,14.15-10.73,22.39-24.38,21.69-42.66-.18-4.8,0-9.61,0-14.41,0-5.11-1.09-5.93-5.78-4-12.76,5.32-25.49,10.74-38.23,16.11C225.35,250.93,224.42,251.21,222.64,251.85Zm44.07-129.24-.08-1.26c-1.8-.67-3.57-1.44-5.4-2-28.9-8.71-57.76-17.56-86.77-25.89a26.71,26.71,0,0,0-14,.31C132,102,103.65,110.64,75.27,119.1c-6.91,2.05-8.21,3.4-8.93,10.46a47.68,47.68,0,0,0-.25,5.07c.07,38.71.62,77.42,0,116.12-.29,19.72,7.4,34.82,23.19,45.32,15.59,10.37,32.08,19.4,48.38,28.64,6.92,3.92,14.38,6.87,22.32,10.6,0-5.19,0-9.56,0-13.92l0-145.38c0-6.44,1.93-9.35,7.69-11.75q42.94-17.94,85.89-35.9C258,126.52,262.35,124.53,266.71,122.61Z"/><path d="M188.3,125q-9.72,3.91-19.45,7.83c-13.73,5.51-27.47,11-41.19,16.52-6.36,2.56-7.47,4.25-7.47,11.13q0,23.49.08,47c0,.52-.1,1-.23,2.23-6.82-3.2-13.06-6.88-19.78-9.08-8.1-2.66-10.85-7.1-10.19-15.7.9-11.93.21-24,.21-36,0-6.37,1.06-7.84,6.83-10.08,19.18-7.43,38.3-15,57.55-22.24a15.48,15.48,0,0,1,8.84-.42c8.28,2.21,16.4,5,24.58,7.64Z"/><text class="cls-1" transform="translate(374.15 294.19)"><tspan class="cls-2">L</tspan><tspan x="139.46" y="0">ogiG</tspan><tspan class="cls-2" x="738.43" y="0">u</tspan><tspan x="906.47" y="0">ard</tspan></text></g></svg>