<svg id="Layer_1" data-name="Layer 1" xmlns="http://www.w3.org/2000/svg" viewBox="0 0 1000 1000"><path d="M656,601.26c0-27-.8-52.19.62-77.22.31-5.48,7.54-12.39,13.29-15.39,14.71-7.67,30.52-13.21,45.65-20.14q63.66-29.16,127.11-58.82c19.55-9.14,28.27-3.86,28.29,17.8,0,51.23.64,102.46,0,153.68-.89,70.47-27.67,129.25-81.35,175.55C725.49,832,651.77,871.07,575,905c-19.67,8.68-39.43,17.57-59.92,23.81-10.2,3.1-23.41,3.68-33.12-.1-95.7-37.32-187.71-81.76-267.45-147.92-57.61-47.8-85.81-109.57-85.71-184.5q.25-195.75,0-391.51c0-22.34,6-30.82,27.36-37.17,108.92-32.4,217.81-64.93,327-96.51a67.73,67.73,0,0,1,35.74,0c89.33,25.8,178.33,52.73,267.44,79.27,20.24,6,40.57,11.77,60.77,17.92,16,4.86,23.12,13.39,23.57,30,.63,23.16.34,46.35.14,69.52-.11,12.71-9.44,18.25-19.41,22.48-36.26,15.34-72.61,30.43-108.94,45.58-52.81,22-105.33,44.77-158.57,65.67-22.17,8.71-30,23.37-29.78,45.77.58,54.07.46,108.15.49,162.22q0,94.51-.14,189c0,19.95,5.37,23.88,22.9,15.46,53.11-25.51,106-51.36,153.27-87.21C771.29,696,795,656.68,793,604.06c-.53-13.8,0-27.64,0-41.46,0-14.71-3.16-17.06-16.66-11.43-36.73,15.31-73.34,30.91-110,46.36C663.77,598.61,661.11,599.42,656,601.26Zm126.83-372-.24-3.61c-5.18-1.94-10.26-4.16-15.54-5.75-83.18-25.07-166.23-50.56-249.73-74.53-12.43-3.57-27.76-2.73-40.36.9-81.92,23.57-163.43,48.56-245.13,72.9-19.86,5.91-23.61,9.78-25.68,30.1a142.27,142.27,0,0,0-.74,14.59c.21,111.41,1.8,222.84.15,334.22q-1.26,85.14,66.75,130.43c44.86,29.84,92.32,55.85,139.26,82.44,19.9,11.28,41.38,19.77,64.21,30.5V801.38q0-209.21.11-418.42c0-18.53,5.56-26.89,22.12-33.81q123.62-51.63,247.2-103.32C757.83,240.54,770.28,234.8,782.81,229.27Z"/><path d="M557.15,236.08q-28,11.26-56,22.54c-39.51,15.85-79.07,31.6-118.55,47.53-18.31,7.39-21.51,12.23-21.5,32q0,67.62.24,135.23c0,1.5-.31,3-.68,6.44-19.62-9.21-37.58-19.8-56.93-26.16-23.3-7.65-31.21-20.42-29.33-45.18,2.61-34.32.61-69,.61-103.51,0-18.35,3.05-22.57,19.68-29,55.18-21.39,110.22-43.18,165.62-64a44.3,44.3,0,0,1,25.44-1.22c23.84,6.36,47.2,14.52,70.74,22C556.72,233.87,556.93,235,557.15,236.08Z"/></svg>